<mxfile host="app.diagrams.net" modified="2023-05-16T13:00:48.676Z" agent="Mozilla/5.0 (Windows NT 10.0; Win64; x64) AppleWebKit/537.36 (KHTML, like Gecko) Chrome/113.0.0.0 Safari/537.36 Edg/113.0.1774.42" etag="ymCrBXuUgIpkwvf3VcNd" version="21.3.2" type="github">
  <diagram name="第 1 页" id="-LUJCLQohkCaoYcFbg0M">
    <mxGraphModel dx="697" dy="419" grid="1" gridSize="10" guides="1" tooltips="1" connect="1" arrows="1" fold="1" page="1" pageScale="1" pageWidth="827" pageHeight="1169" math="0" shadow="0">
      <root>
        <mxCell id="0" />
        <mxCell id="1" parent="0" />
        <mxCell id="WKHsUHvXBEz1V2wrME3d-6" style="edgeStyle=orthogonalEdgeStyle;rounded=0;orthogonalLoop=1;jettySize=auto;html=1;exitX=0.5;exitY=1;exitDx=0;exitDy=0;entryX=0.5;entryY=0;entryDx=0;entryDy=0;" edge="1" parent="1" source="WKHsUHvXBEz1V2wrME3d-1" target="WKHsUHvXBEz1V2wrME3d-2">
          <mxGeometry relative="1" as="geometry" />
        </mxCell>
        <mxCell id="WKHsUHvXBEz1V2wrME3d-7" style="edgeStyle=orthogonalEdgeStyle;rounded=0;orthogonalLoop=1;jettySize=auto;html=1;exitX=0.5;exitY=1;exitDx=0;exitDy=0;entryX=0.5;entryY=0;entryDx=0;entryDy=0;" edge="1" parent="1" source="WKHsUHvXBEz1V2wrME3d-1" target="WKHsUHvXBEz1V2wrME3d-3">
          <mxGeometry relative="1" as="geometry" />
        </mxCell>
        <mxCell id="WKHsUHvXBEz1V2wrME3d-1" value="总经理" style="rounded=0;whiteSpace=wrap;html=1;fontSize=19;" vertex="1" parent="1">
          <mxGeometry x="230" y="60" width="120" height="60" as="geometry" />
        </mxCell>
        <mxCell id="WKHsUHvXBEz1V2wrME3d-8" value="" style="edgeStyle=orthogonalEdgeStyle;rounded=0;orthogonalLoop=1;jettySize=auto;html=1;" edge="1" parent="1" source="WKHsUHvXBEz1V2wrME3d-2" target="WKHsUHvXBEz1V2wrME3d-5">
          <mxGeometry relative="1" as="geometry" />
        </mxCell>
        <mxCell id="WKHsUHvXBEz1V2wrME3d-10" value="" style="edgeStyle=orthogonalEdgeStyle;rounded=0;orthogonalLoop=1;jettySize=auto;html=1;" edge="1" parent="1" source="WKHsUHvXBEz1V2wrME3d-2" target="WKHsUHvXBEz1V2wrME3d-3">
          <mxGeometry relative="1" as="geometry" />
        </mxCell>
        <mxCell id="WKHsUHvXBEz1V2wrME3d-2" value="项目经理" style="rounded=0;whiteSpace=wrap;html=1;fontSize=19;" vertex="1" parent="1">
          <mxGeometry x="140" y="170" width="120" height="60" as="geometry" />
        </mxCell>
        <mxCell id="WKHsUHvXBEz1V2wrME3d-9" value="" style="edgeStyle=orthogonalEdgeStyle;rounded=0;orthogonalLoop=1;jettySize=auto;html=1;" edge="1" parent="1" source="WKHsUHvXBEz1V2wrME3d-3" target="WKHsUHvXBEz1V2wrME3d-4">
          <mxGeometry relative="1" as="geometry" />
        </mxCell>
        <mxCell id="WKHsUHvXBEz1V2wrME3d-3" value="技术负责人" style="rounded=0;whiteSpace=wrap;html=1;fontSize=19;" vertex="1" parent="1">
          <mxGeometry x="320" y="170" width="120" height="60" as="geometry" />
        </mxCell>
        <mxCell id="WKHsUHvXBEz1V2wrME3d-4" value="工程师" style="rounded=0;whiteSpace=wrap;html=1;fontSize=19;" vertex="1" parent="1">
          <mxGeometry x="320" y="290" width="120" height="60" as="geometry" />
        </mxCell>
        <mxCell id="WKHsUHvXBEz1V2wrME3d-5" value="实施人员" style="rounded=0;whiteSpace=wrap;html=1;fontSize=19;" vertex="1" parent="1">
          <mxGeometry x="140" y="290" width="120" height="60" as="geometry" />
        </mxCell>
      </root>
    </mxGraphModel>
  </diagram>
</mxfile>
